<?xml version="1.0" encoding="utf-8"?>
<!-- Generator: Adobe Illustrator 24.2.1, SVG Export Plug-In . SVG Version: 6.00 Build 0)  -->
<svg version="1.1" id="圖層_1" xmlns="http://www.w3.org/2000/svg" xmlns:xlink="http://www.w3.org/1999/xlink" x="0px" y="0px"
	 viewBox="0 0 390 312" style="enable-background:new 0 0 390 312;" xml:space="preserve">
<style type="text/css">
	.st0{fill:#00FF00;}
</style>
<path class="st0" d="M215.33,58h-38.67c-3.89,0-6.74,3.66-5.79,7.43l2.04,8.07c0.58,2.28-1.15,4.5-3.5,4.5h-51.24
	c-2.86,0-5.18,2.32-5.18,5.18v5.63c0,2.86,2.32,5.18,5.18,5.18h153.63c2.86,0,5.18-2.32,5.18-5.18v-5.63c0-2.86-2.32-5.18-5.18-5.18
	h-49.24c-2.35,0-4.08-2.21-3.5-4.5l2.04-8.07C222.07,61.66,219.22,58,215.33,58z"/>
<path class="st0" d="M272.82,117h-39.9c-4.06,0-7.34,3.29-7.34,7.34v26.76c0,6.02-4.88,10.9-10.9,10.9h-40.35
	c-6.02,0-10.9-4.88-10.9-10.9v-26.76c0-4.06-3.29-7.34-7.34-7.34h-38.9c-2.71,0-4.77,2.44-4.31,5.11l23.72,139.25
	c0.36,2.1,2.18,3.64,4.31,3.64h108.19c2.13,0,3.96-1.54,4.31-3.64l23.72-139.25C277.58,119.44,275.53,117,272.82,117z"/>
</svg>
