<?xml version="1.0" encoding="utf-8"?>
<!-- Generator: Adobe Illustrator 24.2.1, SVG Export Plug-In . SVG Version: 6.00 Build 0)  -->
<svg version="1.1" id="圖層_1" xmlns="http://www.w3.org/2000/svg" xmlns:xlink="http://www.w3.org/1999/xlink" x="0px" y="0px"
	 viewBox="0 0 390 312" style="enable-background:new 0 0 390 312;" xml:space="preserve">
<style type="text/css">
	.st0{fill:#00FF00;}
</style>
<path class="st0" d="M215.33,58h-38.67c-3.89,0-6.74,3.66-5.79,7.43l2.04,8.07c0.58,2.28-1.15,4.5-3.5,4.5h-51.24
	c-2.86,0-5.18,2.32-5.18,5.18v5.63c0,2.86,2.32,5.18,5.18,5.18h153.63c2.86,0,5.18-2.32,5.18-5.18v-5.63c0-2.86-2.32-5.18-5.18-5.18
	h-49.24c-2.35,0-4.08-2.21-3.5-4.5l2.04-8.07C222.07,61.66,219.22,58,215.33,58z"/>
<path class="st0" d="M263.41,110.6h-35.07c-3.57,0-6.46,3.13-6.46,6.99v7.45c0,5.73-4.29,10.37-9.58,10.37h-35.47
	c-5.29,0-9.58-4.64-9.58-10.37v-7.45c0-3.86-2.89-6.99-6.46-6.99h-34.19c-2.38,0-4.19,2.32-3.79,4.86l20.85,132.48
	c0.31,2,1.92,3.46,3.79,3.46h95.1c1.88,0,3.48-1.46,3.79-3.46l20.85-132.48C267.6,112.92,265.79,110.6,263.41,110.6z"/>
</svg>
